<?xml version="1.0" encoding="UTF-8" standalone="no"?>
<svg
   xmlns:dc="http://purl.org/dc/elements/1.1/"
   xmlns:cc="http://creativecommons.org/ns#"
   xmlns:rdf="http://www.w3.org/1999/02/22-rdf-syntax-ns#"
   xmlns:svg="http://www.w3.org/2000/svg"
   xmlns="http://www.w3.org/2000/svg"
   viewBox="0 0 980.25336 1032"
   height="1032"
   width="980.25336"
   xml:space="preserve"
   id="svg2"
   version="1.1"><metadata
     id="metadata8"><rdf:RDF><cc:Work
         rdf:about=""><dc:format>image/svg+xml</dc:format><dc:type
           rdf:resource="http://purl.org/dc/dcmitype/StillImage" /></cc:Work></rdf:RDF></metadata><defs
     id="defs6" /><g
     transform="matrix(1.3333333,0,0,-1.3333333,0,1032)"
     id="g10"><g
       transform="scale(0.1)"
       id="g12"><path
         id="path14"
         style="fill:#211d1d;fill-opacity:1;fill-rule:nonzero;stroke:none"
         d="m 2328.85,1506.9 c 0,-251.15 -205.49,-479.47 -479.47,-479.47 -273.98,0 -479.47,205.49 -479.47,479.47 v 2054.87 c 0,251.15 205.49,479.47 479.47,479.47 273.98,0 479.47,-205.49 479.47,-479.47 V 1506.9" /><path
         id="path16"
         style="fill:#211d1d;fill-opacity:1;fill-rule:nonzero;stroke:none"
         d="m 3698.77,958.941 c 0,-251.16 -205.49,-479.472 -479.48,-479.472 -273.98,0 -456.63,205.492 -456.63,479.472 V 4086.9 c 0,251.16 205.48,479.47 479.46,479.47 273.99,0 479.48,-205.48 479.48,-479.47 V 958.941 h -22.83" /><path
         id="path18"
         style="fill:#211d1d;fill-opacity:1;fill-rule:nonzero;stroke:none"
         d="m 936.105,1963.54 c 0,-251.15 -205.484,-479.47 -479.468,-479.47 -273.981,0 -479.469,205.49 -479.469,479.47 V 3082.3 c 0,251.15 205.488,479.47 479.469,479.47 273.984,0 479.468,-228.32 479.468,-479.47 V 1963.54" /><path
         id="path20"
         style="fill:#211d1d;fill-opacity:1;fill-rule:nonzero;stroke:none"
         d="m 5068.67,456.641 c 0,-251.149 -205.48,-479.4691 -479.47,-479.4691 -251.15,0 -456.64,228.3201 -456.64,479.4691 V 4612.03 c 0,251.16 205.49,479.47 479.48,479.47 251.15,0 479.46,-205.48 479.46,-479.47 V 456.641 h -22.83" /><path
         id="path22"
         style="fill:#211d1d;fill-opacity:1;fill-rule:nonzero;stroke:none"
         d="m 6575.57,662.129 c -91.33,0 -159.82,22.832 -251.14,45.66 l -570.8,182.652 c -91.33,22.829 -159.83,136.989 -114.16,228.319 22.83,91.33 136.99,159.82 228.32,114.16 l 593.62,-182.66 c 114.16,-45.66 251.15,-22.83 365.31,68.5 114.16,68.5 159.83,205.49 159.83,319.65 v 3812.92 c 0,182.65 -114.16,342.47 -273.99,388.14 l -5593.8,1689.56 c -114.16,45.66 -251.147,22.83 -365.307,-45.67 -91.328,-91.32 -159.824,-205.48 -159.824,-342.48 V 4315.22 c 0,-114.16 -91.328,-182.65 -182.656,-182.65 -114.16,0 -182.653,91.33 -182.653,182.65 v 2625.66 c 0,251.16 114.157,479.47 319.645,616.46 C 753.453,7717.17 1004.6,7740 1232.92,7671.5 L 6803.89,5981.95 c 319.65,-91.33 547.97,-410.98 547.97,-753.45 V 1415.58 c 0,-251.16 -114.16,-479.478 -319.65,-639.299 -136.99,-45.66 -296.81,-114.152 -456.64,-114.152" /></g></g></svg>